<svg xmlns="http://www.w3.org/2000/svg" xmlns:xlink="http://www.w3.org/1999/xlink" xmlns:serif="http://www.serif.com/" width="140" height="30" viewBox="0 0 140 30" version="1.1" xml:space="preserve" style="fill-rule:evenodd;clip-rule:evenodd;stroke-linejoin:round;stroke-miterlimit:2;"><g><clipPath id="_clip1"><rect x="0" y="-0.018" width="140" height="30.018"></rect></clipPath><g clip-path="url(#_clip1)"><path d="M37.413,12.315c-0.933,-0.627 -3.382,-0.896 -5.163,-0.415c-0.097,-1.774 -1.012,-3.27 -2.685,-4.573l-0.619,-0.416l-0.414,0.624c-0.811,1.232 -1.153,2.873 -1.032,4.366c0.095,0.92 0.415,1.953 1.032,2.703c-2.318,1.345 -4.455,1.039 -13.919,1.039l-14.61,0c-0.042,2.137 0.302,6.248 2.915,9.593c0.289,0.37 0.604,0.727 0.948,1.072c2.126,2.128 5.336,3.689 10.138,3.693c7.325,0.007 13.601,-3.953 17.419,-13.527c1.257,0.02 4.572,0.225 6.195,-2.911c0.039,-0.052 0.413,-0.831 0.413,-0.831l-0.618,-0.415l0,-0.002Zm-27.875,-1.953l-4.108,0l-0,4.108l4.108,0l0,-4.108Zm5.308,0l-4.108,0l-0,4.108l4.108,0l0,-4.108Zm5.308,0l-4.108,0l-0,4.108l4.108,0l0,-4.108Zm5.308,0l-4.108,0l-0,4.108l4.108,0l0,-4.108Zm-21.232,0l-4.108,0l-0,4.108l4.108,0l0,-4.108Zm5.308,-5.19l-4.108,-0l-0,4.108l4.108,0l0,-4.108Zm5.308,-0l-4.108,-0l-0,4.108l4.108,0l0,-4.108Zm5.308,-0l-4.108,-0l-0,4.108l4.108,0l0,-4.108Zm0,-5.19l-4.108,0l-0,4.109l4.108,-0l0,-4.109Z" style="fill:#00153c;fill-rule:nonzero;"></path><path d="M50.297,25.756c-3.724,0 -6.738,-2.9 -6.738,-7.677c-0,-4.777 3.042,-7.648 6.767,-7.648c3.1,0 4.55,1.877 4.805,2.332l0,-8.245l4.606,-0l0,20.926l-4.55,-0l0,-2.161c-0.284,0.484 -1.763,2.473 -4.89,2.473Zm1.422,-11.401c-2.133,0 -3.497,1.593 -3.497,3.724c-0,2.132 1.364,3.724 3.497,3.724c2.132,0 3.468,-1.563 3.468,-3.724c0,-2.16 -1.364,-3.724 -3.468,-3.724Z" style="fill:#00153c;fill-rule:nonzero;"></path><path d="M77.564,18.079c0,4.55 -3.468,7.734 -8.074,7.734c-4.606,0 -8.075,-3.184 -8.075,-7.734c0,-4.549 3.441,-7.734 8.075,-7.734c4.633,0 8.074,3.157 8.074,7.734Zm-4.635,0c0,-2.103 -1.364,-3.724 -3.44,-3.724c-2.077,0 -3.469,1.621 -3.469,3.724c-0,2.104 1.393,3.724 3.469,3.724c2.075,0 3.44,-1.62 3.44,-3.724Z" style="fill:#00153c;fill-rule:nonzero;"></path><path d="M86.15,14.355c-1.905,0 -3.156,1.621 -3.156,3.724c0,2.104 1.251,3.754 3.185,3.754c1.933,-0 2.615,-1.166 2.786,-1.507l4.436,0c-0.171,2.047 -2.133,5.487 -7.336,5.487c-4.35,0 -7.705,-3.042 -7.705,-7.734c0,-4.692 3.355,-7.734 7.648,-7.734c5.203,0 7.166,3.384 7.393,5.516l-4.493,0c-0.228,-0.397 -0.967,-1.506 -2.758,-1.506Z" style="fill:#00153c;fill-rule:nonzero;"></path><path d="M94.907,4.518l4.605,-0l0,11.97l5.886,-5.772l5.8,-0l-7.051,6.795l7.42,7.933l-5.998,-0l-6.057,-6.568l0,6.568l-4.605,-0l-0,-20.926Z" style="fill:#00153c;fill-rule:nonzero;"></path><path d="M126.182,18.165l-0,0.797l-11.202,-0c0.227,1.848 1.62,3.241 3.639,3.241c1.791,0 2.644,-0.824 2.842,-1.137l4.578,0c-0.227,1.763 -2.332,4.748 -7.42,4.748c-5.088,0 -8.189,-3.241 -8.189,-7.734c0,-4.492 3.241,-7.734 7.876,-7.734c4.635,0 7.876,3.014 7.876,7.819Zm-11.117,-2.019l6.483,0c-0.398,-1.536 -1.592,-2.445 -3.242,-2.445c-1.649,-0 -2.842,0.939 -3.241,2.445Z" style="fill:#00153c;fill-rule:nonzero;"></path><path d="M132.382,25.444l-4.607,-0l0,-14.728l4.607,-0l-0,2.303c0.312,-0.682 1.392,-2.332 4.463,-2.332l3.156,-0l-0,4.55l-4.038,-0c-2.587,-0 -3.583,0.966 -3.583,3.014l-0,7.193l0.002,-0Z" style="fill:#00153c;fill-rule:nonzero;"></path></g></g></svg>
