<?xml version="1.0" encoding="UTF-8" standalone="no"?>
<svg
   width="37.809601"
   height="33.252529"
   viewBox="0 0 37.809601 33.252529"
   version="1.1"
   id="svg2"
   sodipodi:docname="cg.svg"
   inkscape:version="1.3 (0e150ed, 2023-07-21)"
   xmlns:inkscape="http://www.inkscape.org/namespaces/inkscape"
   xmlns:sodipodi="http://sodipodi.sourceforge.net/DTD/sodipodi-0.dtd"
   xmlns="http://www.w3.org/2000/svg"
   xmlns:svg="http://www.w3.org/2000/svg">
  <defs
     id="defs2">
    <filter
       inkscape:label="Fast Crop"
       inkscape:auto-region="false"
       inkscape:menu="Fill and Transparency"
       inkscape:menu-tooltip="Does not filter but adds a filter region"
       style="color-interpolation-filters:sRGB"
       id="filter2">
      <feColorMatrix
         type="saturate"
         values="1"
         id="feColorMatrix2"
         result="fbSourceGraphic" />
      <feColorMatrix
         result="fbSourceGraphicAlpha"
         in="fbSourceGraphic"
         values="0 0 0 -1 0 0 0 0 -1 0 0 0 0 -1 0 0 0 0 1 0"
         id="feColorMatrix3" />
      <feColorMatrix
         id="feColorMatrix4"
         type="saturate"
         values="1"
         in="fbSourceGraphic"
         result="fbSourceGraphic" />
      <feColorMatrix
         result="fbSourceGraphicAlpha"
         in="fbSourceGraphic"
         values="0 0 0 -1 0 0 0 0 -1 0 0 0 0 -1 0 0 0 0 1 0"
         id="feColorMatrix5" />
      <feColorMatrix
         id="feColorMatrix6"
         type="saturate"
         values="1"
         in="fbSourceGraphic" />
    </filter>
  </defs>
  <sodipodi:namedview
     id="namedview2"
     pagecolor="#ffffff"
     bordercolor="#000000"
     borderopacity="0.25"
     inkscape:showpageshadow="2"
     inkscape:pageopacity="0.0"
     inkscape:pagecheckerboard="0"
     inkscape:deskcolor="#d1d1d1"
     inkscape:zoom="6.2325474"
     inkscape:cx="104.37145"
     inkscape:cy="30.806023"
     inkscape:window-width="1312"
     inkscape:window-height="797"
     inkscape:window-x="1983"
     inkscape:window-y="175"
     inkscape:window-maximized="0"
     inkscape:current-layer="svg2" />
  <g
     id="g6"
     transform="translate(-96.86131,-1.4414218)">
    <path
       d="m 124.50011,27.88955 c 3.938,0 6.98,-3.187 7.018,-6.966 -0.273,-1.65 -0.854,-4.703 -5.167,-4.703 -4.716,0 -6.28,6.546 -10.122,10.764 -0.309,2.401 -2.593,4.549 -5.451,4.91 0.7,0.727 2.256,1.12 4.115,1.12 3.399,0 7.517,-1.017 9.672,-3.13 -2.876,0.038 -4.725,-1.796 -4.907,-4.339 1.403,1.687 2.987,2.344 4.842,2.344"
       fill="#17abda"
       id="path1"
       style="fill-rule:evenodd;filter:url(#filter2)" />
    <path
       d="m 131.51211,20.64655 c -0.086,-4.391 -2.19,-8.1 -5.433,-11.0570002 -2.465,-2.236 -5.392,-3.93 -8.46,-5.21 -0.2477,-0.1032047 -0.49672,-0.203213 -0.747,-0.3 -3.776,4.496 -16.86,7.8520002 -16.86,17.2750002 0,3.685 2.344,7.13 5.785,8.512 1.993,0.749 3.988,0.79 5.986,0.123 1.773,-0.578 3.233,-1.67 4.447,-3.005 3.842,-4.218 5.405,-10.763 10.12,-10.763 4.314,0 4.895,3.053 5.17,4.702 0,-0.005 -0.002,-0.119 -0.008,-0.277"
       fill="#0070ad"
       id="path2"
       style="fill-rule:evenodd;filter:url(#filter2)"
       inkscape:transform-center-x="74.773421"
       inkscape:transform-center-y="5.7099688"
       sodipodi:nodetypes="ccccscccscc" />
  </g>
</svg>
