<svg xmlns="http://www.w3.org/2000/svg" viewBox="-2.5 -3.5 30 30" aria-hidden="true">
<g><path d="M20.5 2h-17 A1.5 1.5 0 002 3.5
                            v17
                            A1.5 1.5 0 003.5 22
                            h17
                            a1.5 1.5 0 001.5-1.5
                            v-17
                            A1.5 1.5 0 0020.5 2z
                            M8 19
                            H5
                            v-9
                            h3z
                            M6.5 8.25
                            A1.75 1.75 0 118.3 6.5
                            a1.78 1.78 0 01-1.8 1.75z
                            M19 19
                            h-3
                            v-4.74
                            c0-1.42-.6-1.93-1.38-1.93
                            A1.74 1.74 0 0013 14.19
                            a.66.66 0 000 .14
                            V19h-3
                            v-9h2.9
                            v1.3
                            a3.11 3.11 0 012.7-1.4
                            c1.55 0 3.36.86 3.36 3.66z">
                            </path>
                            </g>
                      </svg>